<?xml version="1.0" encoding="utf-8"?><!DOCTYPE svg PUBLIC "-//W3C//DTD SVG 1.1//EN" "http://www.w3.org/Graphics/SVG/1.1/DTD/svg11.dtd" ><svg xmlns="http://www.w3.org/2000/svg"><symbol id="default" viewBox="0 0 50 50"><path fill="#666666" d="M20.654,23.771h5.794c0.655,0,1.146-0.446,1.146-1.102V16.73H26.63v6.107h-5.976V23.771z"/><path fill="#666666" d="M19.691,5.935h-4.878c-0.655,0-1.146,0.447-1.146,1.102v5.821h0.985V6.865h5.039V5.935z"/><path fill="#666666" d="M24.56,7.865H16.66c-0.655,0-1.034,0.375-1.034,1.031v11.936c0,0.655,0.401,1.008,1.058,1.008h7.921c0.656,0,1.02-0.353,1.02-1.008V8.896C25.624,8.241,25.215,7.865,24.56,7.865z M23.618,19.864h-6.012V9.822h6.012V19.864z"/><path fill-rule="evenodd" clip-rule="evenodd" fill="#666666" d="M18.651,13.247v-0.932h4.012v0.932H18.651z"/><path fill-rule="evenodd" clip-rule="evenodd" fill="#666666" d="M18.651,15.289v-0.932h4.012v0.932H18.651z"/><path fill-rule="evenodd" clip-rule="evenodd" fill="#666666" d="M18.651,17.414v-0.932h4.012v0.932H18.651z"/><path fill="none" stroke="#666666" stroke-width="2" d="M40.803,37.145c0,2.13-1.645,3.855-3.67,3.855H4.67C2.645,41,1,39.274,1,37.145V4.856C1,2.727,2.645,1,4.67,1h32.463c2.025,0,3.67,1.727,3.67,3.856V37.145z"/><text transform="matrix(1 0 0 1 14.1826 36.1465)" fill="#686868" font-family="'SegoeUI-Semilight'" font-size="16">ar</text></symbol></svg>